<svg width="300" height="103" viewBox="0 0 300 103" fill="none" xmlns="http://www.w3.org/2000/svg">
<path d="M24.7959 74.5947C20.4912 74.5947 17.0078 73.4902 14.3457 71.2812C11.7025 69.0723 10.2959 65.6644 10.126 61.0576L10.1826 60.8877H17.9424C18.0745 63.5876 18.6693 65.4756 19.7266 66.5518C20.8027 67.609 22.2188 68.1377 23.9746 68.1377C25.6549 68.1377 27.0332 67.5902 28.1094 66.4951C29.2044 65.4001 29.752 63.7764 29.752 61.624V38.5996L24.2012 37.75V32.7656H42.4111V37.75L37.9932 38.5996V61.624C37.9932 65.6077 36.8509 68.7702 34.5664 71.1113C32.3008 73.4336 29.0439 74.5947 24.7959 74.5947ZM44.7051 74V69.0439L48.6982 68.1943V49.1914L44.2803 48.3418V43.3574H56.9678V68.1943L60.9326 69.0439V74H44.7051ZM48.415 36.8721V29.8203H56.9678V36.8721H48.415ZM63.3965 74V69.0439L67.3613 68.1943V49.1914L62.9717 48.3418V43.3574H75.0645L75.4326 47.7471C76.4521 46.18 77.7077 44.9622 79.1992 44.0938C80.7096 43.2253 82.4277 42.791 84.3535 42.791C87.3743 42.791 89.7438 43.7633 91.4619 45.708C93.1989 47.6527 94.0674 50.7018 94.0674 54.8555V68.1943L98.0322 69.0439V74H82.2295V69.0439L85.7695 68.1943V54.8838C85.7695 52.8258 85.3542 51.3721 84.5234 50.5225C83.7116 49.654 82.5127 49.2197 80.9268 49.2197C78.6234 49.2197 76.8581 50.1826 75.6309 52.1084V68.1943L78.9727 69.0439V74H63.3965ZM111.003 74.5947C107.963 74.5947 105.547 73.7829 103.753 72.1592C101.959 70.5166 101.062 68.2887 101.062 65.4756C101.062 62.6058 102.224 60.2646 104.546 58.4521C106.887 56.6396 110.323 55.7334 114.854 55.7334H118.904V53.4678C118.904 51.9951 118.47 50.8057 117.602 49.8994C116.752 48.9743 115.468 48.5117 113.75 48.5117C112.863 48.5117 112.06 48.625 111.343 48.8516C110.644 49.0592 110.012 49.3613 109.445 49.7578L108.794 53.8076H102.847L102.733 45.8496C104.338 44.9434 106.075 44.207 107.944 43.6406C109.813 43.0742 111.9 42.791 114.203 42.791C118.206 42.791 121.368 43.7256 123.69 45.5947C126.013 47.4639 127.174 50.1165 127.174 53.5527V66.1836C127.174 66.599 127.174 67.0049 127.174 67.4014C127.193 67.7979 127.23 68.1943 127.287 68.5908L130.487 69.0439V74H120.235C120.028 73.4714 119.82 72.9049 119.612 72.3008C119.405 71.6966 119.254 71.0924 119.159 70.4883C118.177 71.7344 117.016 72.735 115.676 73.4902C114.354 74.2266 112.797 74.5947 111.003 74.5947ZM113.212 68.4775C114.364 68.4775 115.449 68.2227 116.469 67.7129C117.507 67.1842 118.319 66.4951 118.904 65.6455V60.8027H114.826C113.014 60.8027 111.635 61.2181 110.691 62.0488C109.766 62.8796 109.304 63.8802 109.304 65.0508C109.304 66.1458 109.644 66.9954 110.323 67.5996C111.022 68.1849 111.985 68.4775 113.212 68.4775ZM135.358 59.5566V53.1846H151.331V59.5566H135.358ZM156.344 74V69.0439L160.733 68.1943V38.5996L156.344 37.75V32.7656H173.421V37.75L169.003 38.5996V50.4941H185.825V38.5996L181.407 37.75V32.7656H198.484V37.75L194.066 38.5996V68.1943L198.484 69.0439V74H181.407V69.0439L185.825 68.1943V56.8662H169.003V68.1943L173.421 69.0439V74H156.344ZM214.854 74.5947C211.606 74.5947 209.067 73.5752 207.235 71.5361C205.404 69.4782 204.488 66.2874 204.488 61.9639V49.1914L201.118 48.3418V43.3574H212.758V62.0205C212.758 64.2106 213.135 65.7871 213.891 66.75C214.665 67.694 215.826 68.166 217.374 68.166C219.847 68.166 221.707 67.2409 222.953 65.3906V49.1914L219.3 48.3418V43.3574H231.223V68.1943L234.904 69.0439V74H223.973L223.406 70.1201C221.386 73.1032 218.535 74.5947 214.854 74.5947ZM237.538 74V69.0439L241.531 68.1943V35.6543L237.113 34.8047V29.8203H249.801V68.1943L253.794 69.0439V74H237.538ZM269.512 74.5947C266.264 74.5947 263.725 73.5752 261.894 71.5361C260.062 69.4782 259.146 66.2874 259.146 61.9639V49.1914L255.776 48.3418V43.3574H267.416V62.0205C267.416 64.2106 267.794 65.7871 268.549 66.75C269.323 67.694 270.484 68.166 272.032 68.166C274.506 68.166 276.365 67.2409 277.611 65.3906V49.1914L273.958 48.3418V43.3574H285.881V68.1943L289.562 69.0439V74H278.631L278.064 70.1201C276.044 73.1032 273.193 74.5947 269.512 74.5947Z" fill="#EDFFEA"/>
</svg>
